<?xml version="1.0" encoding="UTF-8" standalone="no"?><!DOCTYPE svg PUBLIC "-//W3C//DTD SVG 1.1//EN" "http://www.w3.org/Graphics/SVG/1.1/DTD/svg11.dtd"><svg width="100%" height="100%" viewBox="0 0 13 14" version="1.1" xmlns="http://www.w3.org/2000/svg" xmlns:xlink="http://www.w3.org/1999/xlink" xml:space="preserve" xmlns:serif="http://www.serif.com/" style="fill-rule:evenodd;clip-rule:evenodd;stroke-linejoin:round;stroke-miterlimit:2;"><path id="calendar_2_" fill="black"  d="M0,3.938l0,9c0,0.309 0.253,0.562 0.563,0.562l11.812,0c0.31,0 0.563,-0.253 0.563,-0.563l-0.001,-9l-12.937,0.001Zm2.812,8.437l-1.687,0l0,-1.687l1.687,0l0,1.687Zm0,-2.25l-1.687,0l0,-1.687l1.687,0l0,1.687Zm0,-2.25l-1.687,0l0,-1.687l1.687,0l0,1.687Zm2.25,4.5l-1.687,0l0,-1.687l1.687,0l0,1.687Zm0,-2.25l-1.687,0l0,-1.687l1.687,0l0,1.687Zm0,-2.25l-1.687,0l0,-1.687l1.687,0l0,1.687Zm2.25,4.5l-1.687,0l0,-1.687l1.687,0l0,1.687Zm0,-2.25l-1.687,0l0,-1.687l1.687,0l0,1.687Zm0,-2.25l-1.687,0l0,-1.687l1.687,0l0,1.687Zm2.25,4.5l-1.687,0l0,-1.687l1.687,0l0,1.687Zm0,-2.25l-1.687,0l0,-1.687l1.687,0l0,1.687Zm0,-2.25l-1.687,0l0,-1.687l1.687,0l0,1.687Zm2.25,4.5l-1.687,0l0,-1.687l1.687,0l0,1.687Zm0,-2.25l-1.687,0l0,-1.687l1.687,0l0,1.687Zm0,-2.25l-1.687,0l0,-1.687l1.687,0l0,1.687Zm1.125,-6.187l0,1.687l-12.937,0l0,-1.687c0,-0.31 0.253,-0.563 0.562,-0.563l1.125,0l0,-0.562c0,-0.31 0.253,-0.563 0.563,-0.563l0.562,0c0.31,0 0.563,0.253 0.563,0.563l0,0.562l6.187,0l0,-0.562c0,-0.31 0.253,-0.563 0.563,-0.563l0.562,0c0.31,0 0.563,0.253 0.563,0.563l0,0.562l1.125,0c0.31,0 0.562,0.253 0.562,0.563Z" style="fill-rule:nonzero;"/></svg>