<?xml version="1.0" encoding="UTF-8" standalone="no"?><!DOCTYPE svg PUBLIC "-//W3C//DTD SVG 1.1//EN" "http://www.w3.org/Graphics/SVG/1.1/DTD/svg11.dtd"><svg width="100%" height="100%" viewBox="0 0 5 15" version="1.1" xmlns="http://www.w3.org/2000/svg" xmlns:xlink="http://www.w3.org/1999/xlink" xml:space="preserve" xmlns:serif="http://www.serif.com/" style="fill-rule:evenodd;clip-rule:evenodd;stroke-linejoin:round;stroke-miterlimit:1.41421;"><path id="option_2_" fill="#666666" d="M4.149,2.075c0,1.145 -0.928,2.074 -2.074,2.074c-1.147,0 -2.075,-0.928 -2.075,-2.074c0,-1.147 0.928,-2.075 2.075,-2.075c1.146,0 2.074,0.929 2.074,2.075Zm-2.074,3.175c-1.146,0 -2.075,0.928 -2.075,2.075c0,1.146 0.928,2.074 2.075,2.074c1.146,0 2.074,-0.928 2.074,-2.074c0,-1.147 -0.929,-2.075 -2.074,-2.075Zm0,5.25c-1.146,0 -2.075,0.928 -2.075,2.075c0,1.146 0.928,2.074 2.075,2.074c1.146,0 2.074,-0.928 2.074,-2.074c0,-1.147 -0.929,-2.075 -2.074,-2.075Z" style="fill-rule:nonzero;"/></svg>