<?xml version="1.0" encoding="UTF-8" standalone="no"?><!DOCTYPE svg PUBLIC "-//W3C//DTD SVG 1.1//EN" "http://www.w3.org/Graphics/SVG/1.1/DTD/svg11.dtd"><svg width="100%" height="100%" viewBox="0 0 19 19" version="1.1" xmlns="http://www.w3.org/2000/svg" xmlns:xlink="http://www.w3.org/1999/xlink" xml:space="preserve" xmlns:serif="http://www.serif.com/" style="fill-rule:evenodd;clip-rule:evenodd;stroke-linejoin:round;stroke-miterlimit:2;"><path id="info-sign_2_" fill="#001A70" d="M9.188,0c-5.074,0 -9.188,4.113 -9.188,9.188c0,5.074 4.114,9.187 9.188,9.187c5.073,0 9.187,-4.113 9.187,-9.188c0,-5.074 -4.114,-9.187 -9.188,-9.187Zm-0.749,4.313c0,-0.207 0.168,-0.375 0.375,-0.375l1.5,0c0.206,0 0.375,0.168 0.375,0.375l0,1.5c0,0.206 -0.169,0.375 -0.375,0.375l-1.5,0c-0.207,0 -0.375,-0.169 -0.375,-0.375l0,-1.5Zm3.75,9.75c0,0.206 -0.169,0.375 -0.375,0.375l-4.5,0c-0.207,0 -0.375,-0.169 -0.375,-0.375l0,-1.5c0,-0.207 0.168,-0.375 0.375,-0.375l1.125,0l0,-3l-1.125,0c-0.207,0 -0.375,-0.169 -0.375,-0.375l0,-1.5c0,-0.207 0.168,-0.375 0.375,-0.375l3,0c0.206,0 0.375,0.168 0.375,0.375l0,4.875l1.125,0c0.206,0 0.375,0.168 0.375,0.375l0,1.5Z" style="fill-rule:nonzero;"/></svg>