<?xml version="1.0" encoding="UTF-8" standalone="no"?><!DOCTYPE svg PUBLIC "-//W3C//DTD SVG 1.1//EN" "http://www.w3.org/Graphics/SVG/1.1/DTD/svg11.dtd"><svg width="100%" height="100%" viewBox="0 0 16 14" version="1.1" xmlns="http://www.w3.org/2000/svg" xmlns:xlink="http://www.w3.org/1999/xlink" xml:space="preserve" xmlns:serif="http://www.serif.com/" style="fill-rule:evenodd;clip-rule:evenodd;stroke-linejoin:round;stroke-miterlimit:1.41421;"><path id="log-out_2_" fill="white" d="M13.493,10.562c-0.034,1.626 -1.36,2.938 -2.993,2.938l-7.5,0c-1.654,0 -3,-1.346 -3,-3l0,-7.5c0,-1.654 1.346,-3 3,-3l7.5,0c1.628,0 2.951,1.306 2.993,2.925l-0.999,-0.823c-0.211,-0.174 -1.025,-0.603 -1.244,-0.603l-9,0c-0.413,0 -0.75,0.338 -0.75,0.75l0,9c0,0.413 0.337,0.75 0.75,0.75l9,0c0.22,0 1.036,-0.432 1.248,-0.609l0.995,-0.828Zm1.967,-4.072l-3.921,-3.231c-0.159,-0.131 -0.29,-0.071 -0.29,0.136l0,1.855l-5.625,0c-0.207,0 -0.375,0.168 -0.375,0.375l0,2.25c0,0.207 0.168,0.375 0.375,0.375l5.625,0l0,1.855c0,0.206 0.13,0.266 0.289,0.135l3.922,-3.269c0.16,-0.133 0.16,-0.349 0,-0.481Z" style="fill-rule:nonzero;"/></svg>