<?xml version="1.0" encoding="UTF-8" standalone="no"?><!DOCTYPE svg PUBLIC "-//W3C//DTD SVG 1.1//EN" "http://www.w3.org/Graphics/SVG/1.1/DTD/svg11.dtd"><svg width="100%" height="100%" viewBox="0 0 17 14" version="1.1" xmlns="http://www.w3.org/2000/svg" xmlns:xlink="http://www.w3.org/1999/xlink" xml:space="preserve" xmlns:serif="http://www.serif.com/" style="fill-rule:evenodd;clip-rule:evenodd;stroke-linejoin:round;stroke-miterlimit:2;"><path id="menu-hamburger_2_" fill="#001A70" d="M0,2.625c0,0.206 0.169,0.375 0.375,0.375l15.75,0c0.206,0 0.375,-0.169 0.375,-0.375l0,-2.25c0,-0.206 -0.169,-0.375 -0.375,-0.375l-15.75,0c-0.206,0 -0.375,0.169 -0.375,0.375l0,2.25Zm0,5.25c0,0.206 0.169,0.375 0.375,0.375l15.75,0c0.206,0 0.375,-0.169 0.375,-0.375l0,-2.25c0,-0.206 -0.169,-0.375 -0.375,-0.375l-15.75,0c-0.206,0 -0.375,0.169 -0.375,0.375l0,2.25Zm0,5.25c0,0.206 0.169,0.375 0.375,0.375l15.75,0c0.206,0 0.375,-0.169 0.375,-0.375l0,-2.25c0,-0.206 -0.169,-0.375 -0.375,-0.375l-15.75,0c-0.206,0 -0.375,0.169 -0.375,0.375l0,2.25Z" style="fill-rule:nonzero;"/></svg>