<?xml version="1.0" encoding="UTF-8" standalone="no"?><!DOCTYPE svg PUBLIC "-//W3C//DTD SVG 1.1//EN" "http://www.w3.org/Graphics/SVG/1.1/DTD/svg11.dtd"><svg width="100%" height="100%" viewBox="0 0 18 18" version="1.1" xmlns="http://www.w3.org/2000/svg" xmlns:xlink="http://www.w3.org/1999/xlink" xml:space="preserve" xmlns:serif="http://www.serif.com/" style="fill-rule:evenodd;clip-rule:evenodd;stroke-linejoin:round;stroke-miterlimit:2;"><path id="search_1_" fill="white"  d="M17.511,15.379l-4.409,-4.409c0.717,-1.112 1.14,-2.43 1.14,-3.85c0,-3.926 -3.196,-7.12 -7.122,-7.12c-3.927,0 -7.12,3.194 -7.12,7.12c0,3.927 3.193,7.122 7.12,7.122c1.419,0 2.738,-0.422 3.849,-1.14l4.409,4.409c0.146,0.147 0.388,0.147 0.534,0l1.599,-1.599c0.148,-0.146 0.148,-0.386 0,-0.533Zm-15.249,-8.259c0,-2.678 2.179,-4.859 4.858,-4.859c2.68,0 4.86,2.18 4.86,4.859c0,2.68 -2.179,4.861 -4.86,4.861c-2.679,0 -4.858,-2.181 -4.858,-4.861Z" style="fill-rule:nonzero;"/></svg>